<svg width="32" height="32" viewBox="0 0 32 32" fill="none" xmlns="http://www.w3.org/2000/svg">
  <g clip-path="url(#clip0_190_75)">
    <path
      d="M16 1.33331C13.9989 1.33331 12.0174 1.72746 10.1686 2.49324C8.31986 3.25903 6.64003 4.38146 5.22504 5.79645C2.36734 8.65415 0.761906 12.53 0.761906 16.5714C0.761906 23.3066 5.13524 29.0209 11.1848 31.0476C11.9467 31.1695 12.1905 30.6971 12.1905 30.2857V27.7105C7.96952 28.6247 7.07048 25.6686 7.07048 25.6686C6.36952 23.9009 5.37905 23.4286 5.37905 23.4286C3.99238 22.4838 5.48571 22.5143 5.48571 22.5143C7.00952 22.6209 7.81714 24.0838 7.81714 24.0838C9.14286 26.4 11.3829 25.7143 12.2514 25.3486C12.3886 24.3581 12.7848 23.6876 13.2114 23.3066C9.82857 22.9257 6.2781 21.6152 6.2781 15.8095C6.2781 14.1181 6.85714 12.7619 7.84762 11.68C7.69524 11.299 7.16191 9.71427 8 7.65712C8 7.65712 9.28 7.24569 12.1905 9.21141C13.3943 8.87617 14.7048 8.70855 16 8.70855C17.2952 8.70855 18.6057 8.87617 19.8095 9.21141C22.72 7.24569 24 7.65712 24 7.65712C24.8381 9.71427 24.3048 11.299 24.1524 11.68C25.1429 12.7619 25.7219 14.1181 25.7219 15.8095C25.7219 21.6305 22.1562 22.9105 18.7581 23.2914C19.3067 23.7638 19.8095 24.6933 19.8095 26.1105V30.2857C19.8095 30.6971 20.0533 31.1847 20.8305 31.0476C26.88 29.0057 31.2381 23.3066 31.2381 16.5714C31.2381 14.5703 30.844 12.5888 30.0782 10.74C29.3124 8.89127 28.1899 7.21144 26.775 5.79645C25.36 4.38146 23.6801 3.25903 21.8314 2.49324C19.9826 1.72746 18.0011 1.33331 16 1.33331Z"
      fill="black" />
  </g>
  <defs>
    <clipPath id="clip0_190_75">
      <rect width="32" height="30.8571" fill="white" transform="translate(0 0.571411)" />
    </clipPath>
  </defs>
</svg>
  