<svg width="62" height="59" viewBox="0 0 62 59" fill="none" xmlns="http://www.w3.org/2000/svg">
  <g clip-path="url(#clip0_4_6)">
    <g clip-path="url(#clip1_4_6)">
      <path
        d="M47.4648 56.93C47.6861 57.4429 47.4548 58.0361 46.942 58.2473C46.8112 58.3076 46.6805 58.3378 46.5397 58.3378C46.1576 58.3378 45.7856 58.1065 45.6247 57.7244C45.4537 57.3524 41.3711 48.614 24.0352 48.8051H23.9849C6.53837 48.5939 2.42561 57.6339 2.38538 57.7244C2.16416 58.2373 1.57088 58.4786 1.05804 58.2473C0.936369 58.1962 0.826115 58.1213 0.733728 58.0271C0.641341 57.9328 0.568677 57.8211 0.519986 57.6985C0.471296 57.5758 0.447558 57.4447 0.450161 57.3127C0.452764 57.1808 0.481656 57.0507 0.535146 56.93C0.635702 56.6987 2.03344 53.6016 6.37748 50.8866V39.8053C5.75496 39.6317 5.18752 39.301 4.72967 38.8449C4.27182 38.3888 3.93894 37.8227 3.76301 37.2008C2.75023 37.0857 1.81527 36.6018 1.13647 35.8414C0.457671 35.081 0.0825428 34.0973 0.0826416 33.078C0.0826416 30.9965 1.63121 29.2569 3.64234 28.9753C3.86357 27.105 5.45236 25.6469 7.38304 25.6469C9.30367 25.6469 10.9025 27.105 11.1237 28.9753C12.1206 29.1201 13.0307 29.6226 13.6842 30.3892C14.3377 31.1557 14.6899 32.1339 14.6752 33.1411C14.6604 34.1483 14.2796 35.1157 13.6039 35.8627C12.9282 36.6098 12.0037 37.0854 11.0031 37.2008C10.824 37.8211 10.4901 38.3856 10.0327 38.8412C9.57533 39.2968 9.00955 39.6286 8.38861 39.8053V49.7905C11.7572 48.1414 16.4733 46.8442 22.9794 46.7939V30.544C21.9848 30.3441 21.0703 29.8578 20.3486 29.145C19.6268 28.4321 19.1291 27.5238 18.9169 26.5318C17.4456 26.4506 16.0612 25.8095 15.0478 24.7399C14.0343 23.6703 13.4686 22.2534 13.4667 20.78C13.4667 17.7532 15.8298 15.2494 18.8063 15.0382C18.8635 13.7026 19.4339 12.4406 20.3987 11.5152C21.3634 10.5898 22.6481 10.0723 23.9849 10.0707C26.7703 10.0707 29.0429 12.283 29.1535 15.0382C30.6038 15.1448 31.9602 15.7959 32.9506 16.8608C33.9409 17.9257 34.4919 19.3257 34.4931 20.78C34.4931 23.857 32.0797 26.3709 29.0429 26.5318C28.8328 27.5231 28.3371 28.4313 27.617 29.1442C26.8969 29.8572 25.9839 30.3438 24.9905 30.544V46.7939C31.5166 46.8442 36.2327 48.1313 39.6114 49.7805V39.8053C38.9905 39.6286 38.4247 39.2968 37.9673 38.8412C37.5099 38.3856 37.176 37.8211 36.9969 37.2008C35.9963 37.0854 35.0718 36.6098 34.3961 35.8627C33.7204 35.1157 33.3396 34.1483 33.3248 33.1411C33.3101 32.1339 33.6623 31.1557 34.3158 30.3892C34.9693 29.6226 35.8794 29.1201 36.8763 28.9753C36.9866 28.0598 37.4278 27.2162 38.1167 26.6032C38.8056 25.9902 39.6948 25.6501 40.617 25.6469C42.5476 25.6469 44.1364 27.105 44.3577 28.9753C46.3688 29.2569 47.9174 30.9965 47.9174 33.078C47.9174 35.2098 46.3085 36.9696 44.237 37.2008C44.0611 37.8227 43.7282 38.3888 43.2703 38.8449C42.8125 39.301 42.245 39.6317 41.6225 39.8053V50.8866C45.9766 53.6016 47.3643 56.6987 47.4648 56.93Z"
        fill="#388E3C" />
    </g>
    <path
      d="M32.75 6.25H36.7344V7.30469H36.0312V10H35.5625L34.877 9.48438C34.4453 9.90625 33.8145 10.1172 32.9844 10.1172C32.6348 10.1172 32.3008 10.0801 31.9824 10.0059C31.666 9.93359 31.3789 9.83203 31.1211 9.70117C30.8652 9.57031 30.6289 9.41406 30.4121 9.23242C30.1953 9.05078 30.0078 8.85059 29.8496 8.63184C29.6914 8.41113 29.5566 8.17773 29.4453 7.93164C29.3359 7.68359 29.2539 7.42871 29.1992 7.16699C29.1445 6.90332 29.1172 6.63672 29.1172 6.36719C29.1172 6.09766 29.1445 5.83203 29.1992 5.57031C29.2539 5.30664 29.3359 5.05176 29.4453 4.80566C29.5566 4.55762 29.6914 4.32422 29.8496 4.10547C30.0078 3.88477 30.1953 3.68359 30.4121 3.50195C30.6289 3.32031 30.8652 3.16406 31.1211 3.0332C31.3789 2.90234 31.666 2.80078 31.9824 2.72852C32.3008 2.6543 32.6348 2.61719 32.9844 2.61719C34.0098 2.61719 34.8301 2.89063 35.4453 3.4375C35.6973 3.66016 35.877 3.88477 35.9844 4.11133C36.0938 4.33594 36.1484 4.61914 36.1484 4.96094C36.1484 5.2207 36.0566 5.44238 35.873 5.62598C35.6914 5.80762 35.4707 5.89844 35.2109 5.89844C34.9512 5.89844 34.7295 5.80762 34.5459 5.62598C34.3643 5.44238 34.2734 5.2207 34.2734 4.96094C34.2734 4.82812 34.2998 4.70312 34.3525 4.58594C34.4053 4.4668 34.4785 4.36328 34.5723 4.27539C34.4316 4.01367 34.2412 3.82813 34.001 3.71875C33.7627 3.60937 33.4629 3.55469 33.1016 3.55469C32.8652 3.55469 32.6455 3.60254 32.4424 3.69824C32.2412 3.79395 32.0664 3.92773 31.918 4.09961C31.7715 4.27148 31.6455 4.47461 31.54 4.70898C31.4346 4.94336 31.3555 5.20117 31.3027 5.48242C31.252 5.76172 31.2266 6.05664 31.2266 6.36719C31.2266 6.67383 31.2578 6.96875 31.3203 7.25195C31.3828 7.53516 31.4736 7.79297 31.5928 8.02539C31.7119 8.25781 31.8516 8.46094 32.0117 8.63477C32.1719 8.80664 32.3555 8.94043 32.5625 9.03613C32.7715 9.13184 32.9902 9.17969 33.2188 9.17969C33.5898 9.17969 33.9023 9.06152 34.1562 8.8252V7.30469H32.75V6.25ZM37.0859 4.60938H38.9053L39.2744 5.32129C39.6201 4.76855 40.1094 4.49219 40.7422 4.49219C41.166 4.49219 41.502 4.62305 41.75 4.88477C42 5.14453 42.125 5.48242 42.125 5.89844C42.125 6.1582 42.0332 6.37988 41.8496 6.56348C41.668 6.74512 41.4473 6.83594 41.1875 6.83594C40.9277 6.83594 40.7061 6.74512 40.5225 6.56348C40.3408 6.37988 40.25 6.1582 40.25 5.89844C40.25 5.79297 40.2666 5.69141 40.2998 5.59375C40.2471 5.5625 40.1914 5.54688 40.1328 5.54688C40.002 5.54688 39.8662 5.63281 39.7256 5.80469C39.5869 5.97461 39.4531 6.22949 39.3242 6.56934L39.3125 9.0625H40.6016V10H37.0859V9.0625H37.6719V5.54688H37.0859V4.60938ZM44.1699 7.65625C44.1875 7.88281 44.2246 8.08496 44.2812 8.2627C44.3379 8.44043 44.4062 8.58594 44.4863 8.69922C44.5684 8.8125 44.6631 8.90625 44.7705 8.98047C44.8779 9.05273 44.9883 9.10449 45.1016 9.13574C45.2148 9.16504 45.3359 9.17969 45.4648 9.17969C45.877 9.17969 46.1982 9.10059 46.4287 8.94238C46.6611 8.78223 46.8467 8.53613 46.9854 8.2041L47.7646 8.47363C47.6943 8.66309 47.6045 8.8418 47.4951 9.00977C47.3877 9.17578 47.2578 9.3291 47.1055 9.46973C46.9531 9.61035 46.7832 9.73145 46.5957 9.83301C46.4102 9.93262 46.2002 10.0107 45.9658 10.0674C45.7314 10.124 45.4844 10.1523 45.2246 10.1523C44.8398 10.1523 44.4756 10.085 44.1318 9.9502C43.79 9.81543 43.4922 9.62793 43.2383 9.3877C42.9863 9.14551 42.7861 8.84766 42.6377 8.49414C42.4912 8.14062 42.418 7.75586 42.418 7.33984C42.418 6.92383 42.4912 6.53711 42.6377 6.17969C42.7861 5.82227 42.9863 5.52148 43.2383 5.27734C43.4922 5.03125 43.79 4.83887 44.1318 4.7002C44.4756 4.56152 44.8398 4.49219 45.2246 4.49219C45.6094 4.49219 45.9727 4.56152 46.3145 4.7002C46.6582 4.83887 46.9561 5.03125 47.208 5.27734C47.4619 5.52148 47.6621 5.82227 47.8086 6.17969C47.957 6.53711 48.0312 6.92383 48.0312 7.33984L47.958 7.65625H44.1699ZM44.1904 6.71875H46.2588C46.208 6.26953 46.0957 5.94238 45.9219 5.7373C45.748 5.53223 45.5176 5.42969 45.2305 5.42969C45.0879 5.42969 44.96 5.45312 44.8467 5.5C44.7334 5.54492 44.6318 5.61816 44.542 5.71973C44.4521 5.81934 44.377 5.95312 44.3164 6.12109C44.2578 6.28711 44.2158 6.48633 44.1904 6.71875ZM50.3105 7.65625C50.3281 7.88281 50.3652 8.08496 50.4219 8.2627C50.4785 8.44043 50.5469 8.58594 50.627 8.69922C50.709 8.8125 50.8037 8.90625 50.9111 8.98047C51.0186 9.05273 51.1289 9.10449 51.2422 9.13574C51.3555 9.16504 51.4766 9.17969 51.6055 9.17969C52.0176 9.17969 52.3389 9.10059 52.5693 8.94238C52.8018 8.78223 52.9873 8.53613 53.126 8.2041L53.9053 8.47363C53.835 8.66309 53.7451 8.8418 53.6357 9.00977C53.5283 9.17578 53.3984 9.3291 53.2461 9.46973C53.0938 9.61035 52.9238 9.73145 52.7363 9.83301C52.5508 9.93262 52.3408 10.0107 52.1064 10.0674C51.8721 10.124 51.625 10.1523 51.3652 10.1523C50.9805 10.1523 50.6162 10.085 50.2725 9.9502C49.9307 9.81543 49.6328 9.62793 49.3789 9.3877C49.127 9.14551 48.9268 8.84766 48.7783 8.49414C48.6318 8.14062 48.5586 7.75586 48.5586 7.33984C48.5586 6.92383 48.6318 6.53711 48.7783 6.17969C48.9268 5.82227 49.127 5.52148 49.3789 5.27734C49.6328 5.03125 49.9307 4.83887 50.2725 4.7002C50.6162 4.56152 50.9805 4.49219 51.3652 4.49219C51.75 4.49219 52.1133 4.56152 52.4551 4.7002C52.7988 4.83887 53.0967 5.03125 53.3486 5.27734C53.6025 5.52148 53.8027 5.82227 53.9492 6.17969C54.0977 6.53711 54.1719 6.92383 54.1719 7.33984L54.0986 7.65625H50.3105ZM50.3311 6.71875H52.3994C52.3486 6.26953 52.2363 5.94238 52.0625 5.7373C51.8887 5.53223 51.6582 5.42969 51.3711 5.42969C51.2285 5.42969 51.1006 5.45312 50.9873 5.5C50.874 5.54492 50.7725 5.61816 50.6826 5.71973C50.5928 5.81934 50.5176 5.95312 50.457 6.12109C50.3984 6.28711 50.3564 6.48633 50.3311 6.71875ZM58.5078 4.49219C58.7812 4.49219 59.0205 4.5293 59.2256 4.60352C59.4307 4.67773 59.5986 4.78027 59.7295 4.91113C59.8604 5.04004 59.9658 5.20508 60.0459 5.40625C60.1279 5.60547 60.1846 5.82031 60.2158 6.05078C60.249 6.2793 60.2656 6.54102 60.2656 6.83594V9.0625H60.8516V10H58.0391V9.0625H58.625V6.71875C58.625 6.41016 58.5967 6.16992 58.54 5.99805C58.4854 5.82617 58.4053 5.70801 58.2998 5.64355C58.1963 5.5791 58.0547 5.54688 57.875 5.54688C57.7109 5.54688 57.543 5.61621 57.3711 5.75488C57.1992 5.89355 57.0361 6.08691 56.8818 6.33496L56.8672 9.0625H57.4531V10H54.6406V9.0625H55.2266V5.54688H54.6406V4.60938H56.46L56.8701 5.40332C56.9424 5.27246 57.0254 5.15527 57.1191 5.05176C57.2148 4.94629 57.3281 4.85059 57.459 4.76465C57.5918 4.67676 57.7471 4.60938 57.9248 4.5625C58.1025 4.51562 58.2969 4.49219 58.5078 4.49219Z"
      fill="#388E3C" />
    <path
      d="M52.5303 16.2734L49.9375 16.2734L49.9375 16.8594L49 16.8594L49 15.0342L49.6094 14.7734C49.3242 14.5742 49.1289 14.3428 49.0234 14.0791C48.918 13.8174 48.8652 13.4512 48.8652 12.9805C48.8652 12.7363 48.9082 12.5088 48.9941 12.2979C49.0781 12.0889 49.1934 11.9102 49.3398 11.7617C49.4863 11.6152 49.6621 11.5 49.8672 11.416C50.0723 11.334 50.292 11.293 50.5264 11.293C50.9307 11.293 51.2656 11.4512 51.5312 11.7676C51.7988 12.084 51.9326 12.4883 51.9326 12.9805C51.9326 13.377 51.8945 13.7051 51.8184 13.9648C51.7441 14.2246 51.625 14.4473 51.4609 14.6328L52.7031 14.6328C52.8789 14.6328 53.0254 14.6084 53.1426 14.5596C53.2617 14.5127 53.3525 14.4414 53.415 14.3457C53.4795 14.25 53.5244 14.1426 53.5498 14.0234C53.5752 13.9043 53.5879 13.7617 53.5879 13.5957C53.5879 13.4629 53.5596 13.3428 53.5029 13.2354C53.376 13.2959 53.2422 13.3262 53.1016 13.3262C52.8418 13.3262 52.6201 13.2344 52.4365 13.0508C52.2549 12.8691 52.1641 12.6484 52.1641 12.3887C52.1641 12.1289 52.2549 11.9072 52.4365 11.7236C52.6201 11.542 52.8418 11.4512 53.1016 11.4512C53.2344 11.4512 53.3594 11.4766 53.4766 11.5273C53.5937 11.5801 53.6963 11.6523 53.7842 11.7441C53.8662 11.8223 53.9395 11.9033 54.0039 11.9873C54.0703 12.0713 54.1357 12.1768 54.2002 12.3037C54.2666 12.4326 54.3213 12.5723 54.3643 12.7227C54.4072 12.873 54.4414 13.0527 54.4668 13.2617C54.4941 13.4727 54.5078 13.7031 54.5078 13.9531C54.5078 14.2773 54.46 14.582 54.3643 14.8672C54.2686 15.1523 54.1357 15.3984 53.9658 15.6055C53.7959 15.8125 53.5869 15.9756 53.3389 16.0947C53.0908 16.2139 52.8213 16.2734 52.5303 16.2734ZM50.3008 14.6328L50.7051 14.6328C50.8203 14.5117 50.917 14.375 50.9951 14.2227C51.0752 14.0723 51.1152 13.9326 51.1152 13.8037C51.1152 13.5264 51.0684 13.3311 50.9746 13.2178C50.8828 13.1045 50.7334 13.0479 50.5264 13.0479C50.2783 13.0479 50.0957 13.0967 49.9785 13.1943C49.8613 13.292 49.8027 13.4736 49.8027 13.7393C49.8027 13.8896 49.8506 14.0459 49.9463 14.208C50.0439 14.3721 50.1621 14.5137 50.3008 14.6328ZM54.3906 17.3867L54.3906 19.2061L53.6787 19.5752C54.2314 19.9209 54.5078 20.4102 54.5078 21.043C54.5078 21.4668 54.377 21.8027 54.1152 22.0508C53.8555 22.3008 53.5176 22.4258 53.1016 22.4258C52.8418 22.4258 52.6201 22.334 52.4365 22.1504C52.2549 21.9687 52.1641 21.748 52.1641 21.4883C52.1641 21.2285 52.2549 21.0068 52.4365 20.8232C52.6201 20.6416 52.8418 20.5508 53.1016 20.5508C53.207 20.5508 53.3086 20.5674 53.4062 20.6006C53.4375 20.5479 53.4531 20.4922 53.4531 20.4336C53.4531 20.3027 53.3672 20.167 53.1953 20.0264C53.0254 19.8877 52.7705 19.7539 52.4307 19.625L49.9375 19.6133L49.9375 20.9023L49 20.9023L49 17.3867L49.9375 17.3867L49.9375 17.9727L53.4531 17.9727L53.4531 17.3867L54.3906 17.3867ZM55.5625 24.5352L55.5625 25.1211L54.3906 25.1211L54.3906 26.7617L53.4531 26.7617L53.4531 25.1211L50.4062 25.1211C50.2734 25.1211 50.1621 25.1582 50.0723 25.2324C49.9824 25.3086 49.9375 25.4277 49.9375 25.5898C49.9375 25.7715 49.9971 25.9258 50.1162 26.0527C50.2373 26.1797 50.4121 26.2598 50.6406 26.293L50.5234 26.9961C50.2949 26.9668 50.083 26.9102 49.8877 26.8262C49.6943 26.7441 49.5215 26.6367 49.3691 26.5039C49.2187 26.3711 49.0996 26.2061 49.0117 26.0088C48.9258 25.8135 48.8828 25.5957 48.8828 25.3555C48.8828 24.7715 49.0186 24.3125 49.29 23.9785C49.5635 23.6465 49.9355 23.4805 50.4062 23.4805L53.4531 23.4805L53.4531 22.8945L54.3906 22.8945L54.3906 23.0117C54.3906 23.3125 54.4766 23.5781 54.6484 23.8086C54.8203 24.0391 55.125 24.2812 55.5625 24.5352ZM54.5078 31.332C54.5078 31.6055 54.4707 31.8447 54.3965 32.0498C54.3223 32.2549 54.2197 32.4229 54.0889 32.5537C53.96 32.6846 53.7949 32.79 53.5937 32.8701C53.3945 32.9521 53.1797 33.0088 52.9492 33.04C52.7207 33.0732 52.459 33.0898 52.1641 33.0898L49.9375 33.0898L49.9375 33.6758L49 33.6758L49 30.8633L49.9375 30.8633L49.9375 31.4492L52.2812 31.4492C52.5898 31.4492 52.8301 31.4209 53.002 31.3643C53.1738 31.3096 53.292 31.2295 53.3564 31.124C53.4209 31.0205 53.4531 30.8789 53.4531 30.6992C53.4531 30.5332 53.3818 30.3623 53.2393 30.1865C53.0967 30.0127 52.8975 29.8477 52.6416 29.6914L49.9375 29.6914L49.9375 30.2773L49 30.2773L49 27.4648L49.9375 27.4648L49.9375 28.0508L55.3281 28.0508L55.3281 27.4648L56.2656 27.4648L56.2656 29.6914L53.5908 29.6914C53.7217 29.7617 53.8398 29.8447 53.9453 29.9404C54.0508 30.0361 54.1465 30.1494 54.2324 30.2803C54.3203 30.4111 54.3877 30.5654 54.4346 30.7432C54.4834 30.9229 54.5078 31.1191 54.5078 31.332Z"
      fill="#6E4B1F" />
  </g>
  <defs>
    <clipPath id="clip0_4_6">
      <rect width="62" height="59" fill="white" />
    </clipPath>
    <clipPath id="clip1_4_6">
      <rect width="48" height="48.4085" fill="white" transform="translate(0 10)" />
    </clipPath>
  </defs>
</svg>