<svg width="96" height="92" viewBox="0 0 96 92" fill="none" xmlns="http://www.w3.org/2000/svg">
  <g clip-path="url(#clip0_202_74)">
    <path
      d="M65.6682 10.3189C64.9471 6.83783 62.7092 3.58054 59.4519 2.18811C56.5427 0.944863 54.0563 1.44216 51.9676 2.85946C49.4314 4.57513 46.0995 4.57513 43.5384 2.85946C41.4498 1.44216 38.9633 0.944863 36.0541 2.18811C32.7968 3.58054 30.559 6.83783 29.8379 10.3189C29.1168 13.8 29.7384 17.4303 31.0314 20.7373C32.3244 24.0443 34.2141 27.0778 36.1038 30.0865C39.9081 36.1535 43.9611 42.1957 47.7654 48.2627C51.5698 42.1957 55.6227 36.1535 59.4271 30.0865C61.3168 27.0778 63.2314 24.0692 64.4995 20.7373C65.7676 17.4551 66.3892 13.8 65.6682 10.3189Z"
      fill="#FFCEED" />
    <path
      d="M29.813 10.3189C29.0919 13.8 29.7135 17.4303 31.0065 20.7373C32.2995 24.0443 34.1892 27.0778 36.079 30.0865C39.8833 36.1535 43.9363 42.1957 47.7406 48.2627C51.5449 42.1957 55.5979 36.1535 59.4022 30.0865C61.2919 27.0778 63.2065 24.0692 64.4746 20.7373C65.7676 17.4303 66.3892 13.7751 65.6681 10.3189C65.6681 10.3189 62.6595 24.8649 47.7406 24.8649C32.8217 24.8649 29.813 10.3189 29.813 10.3189Z"
      fill="#FFBEE7" />
    <path
      d="M18.3254 18.6735C14.7946 18.3005 11.0152 19.4195 8.67788 22.08C6.58923 24.467 6.31572 26.9784 6.98707 29.4151C7.83247 32.3741 6.81301 35.5319 4.37626 37.4216C2.38707 38.9881 1.14382 41.1762 1.41734 44.3341C1.74058 47.8649 4.15247 50.9978 7.21085 52.7632C10.2941 54.5287 13.9492 55.0508 17.5049 54.8519C21.0357 54.653 24.5168 53.7827 27.9481 52.9124C34.8854 51.147 41.8973 49.2076 48.8346 47.4422C44.2595 41.947 39.7341 36.2281 35.159 30.733C32.8963 27.9978 30.6087 25.2627 27.8487 23.0249C25.1136 20.787 21.8563 19.0465 18.3254 18.6735Z"
      fill="#FFCEED" />
    <path
      d="M7.23575 52.7881C10.319 54.5535 13.9741 55.0757 17.5298 54.8768C21.0606 54.6778 24.5417 53.8076 27.973 52.9373C34.9103 51.1719 41.9222 49.2324 48.8595 47.467C44.2844 41.9719 39.759 36.253 35.1839 30.7578C32.9212 28.0227 30.6336 25.2876 27.8736 23.0497C25.1136 20.8119 21.8563 19.0714 18.3255 18.6984C18.3255 18.6984 31.2303 26.0584 26.6303 40.2562C22.0303 54.4541 7.23575 52.7881 7.23575 52.7881Z"
      fill="#FFBEE7" />
    <path
      d="M11.6368 66.2897C10.1947 69.5222 10.0703 73.4757 11.9103 76.5341C13.5266 79.2443 15.839 80.3135 18.3752 80.3881C21.4336 80.5124 24.1439 82.4519 25.1882 85.3362C26.0585 87.6984 27.7741 89.5881 30.8574 90.2843C34.3136 91.08 38.0433 89.7622 40.679 87.3751C43.3147 84.9881 44.9309 81.6562 45.8509 78.2249C46.746 74.7935 46.9947 71.2378 47.2433 67.6822C47.7158 60.546 48.0141 53.2605 48.4866 46.1243C41.8476 48.7849 35.0098 51.3211 28.3709 53.9816C25.0887 55.2995 21.7568 56.6422 18.7731 58.5568C15.7395 60.4714 13.079 63.0573 11.6368 66.2897Z"
      fill="#FFCEED" />
    <path
      d="M40.6541 87.3503C43.2898 84.9632 44.906 81.6313 45.826 78.2C46.7211 74.7686 46.9698 71.213 47.2184 67.6573C47.6908 60.5211 47.9892 53.2357 48.4617 46.0995C41.8227 48.76 34.9849 51.2962 28.346 53.9568C25.0638 55.2746 21.7319 56.6173 18.7481 58.5319C15.7644 60.4465 13.1038 63.0324 11.6617 66.2649C11.6617 66.2649 22.6519 56.2443 34.7114 65.0216C46.7708 73.7989 40.6541 87.3503 40.6541 87.3503Z"
      fill="#FFBEE7" />
    <path
      d="M54.8271 87.3503C57.4628 89.7373 61.1925 91.0551 64.6487 90.2595C67.7319 89.5632 69.4476 87.6735 70.3179 85.3114C71.3622 82.427 74.0725 80.4627 77.1309 80.3632C79.6422 80.2638 81.9547 79.2195 83.5957 76.5092C85.4109 73.4508 85.3114 69.5222 83.8692 66.2649C82.4271 63.0324 79.7665 60.4465 76.7828 58.5319C73.799 56.6173 70.492 55.2746 67.1849 53.9568C60.546 51.2962 53.7082 48.76 47.0692 46.0995C47.5417 53.2357 47.8401 60.5211 48.3125 67.6573C48.5363 71.1881 48.7849 74.7686 49.7049 78.2C50.5752 81.6562 52.2163 84.9881 54.8271 87.3503Z"
      fill="#FFCEED" />
    <path
      d="M83.8444 66.2897C82.4022 63.0573 79.7417 60.4714 76.7579 58.5568C73.7741 56.6422 70.4671 55.2995 67.1601 53.9816C60.5212 51.3211 53.6833 48.7849 47.0444 46.1243C47.5168 53.2605 47.8152 60.546 48.2877 67.6822C48.5114 71.213 48.7601 74.7935 49.6801 78.2249C50.5752 81.6562 52.2163 84.9881 54.852 87.3751C54.852 87.3751 48.7352 73.8238 60.7947 65.0714C72.8541 56.3189 83.8444 66.2897 83.8444 66.2897Z"
      fill="#FFBEE7" />
    <path
      d="M88.2455 52.7881C91.3287 51.0227 93.7406 47.8897 94.039 44.3589C94.3125 41.2011 93.0692 38.9881 91.08 37.4465C88.6682 35.5568 87.6487 32.3989 88.4692 29.44C89.1655 27.0032 88.8671 24.4919 86.7784 22.1049C84.4411 19.4443 80.6617 18.3005 77.1309 18.6984C73.6 19.0714 70.3427 20.8119 67.5827 23.0497C64.8227 25.2876 62.5352 28.0476 60.2725 30.7578C55.6973 36.253 51.1719 41.9719 46.5968 47.467C53.5341 49.2324 60.546 51.1719 67.4833 52.9373C70.9146 53.8076 74.3957 54.6778 77.9265 54.8768C81.4822 55.0757 85.1622 54.5535 88.2455 52.7881Z"
      fill="#FFCEED" />
    <path
      d="M77.1557 18.6735C73.6249 19.0465 70.3676 20.787 67.6076 23.0249C64.8476 25.2627 62.5601 28.0227 60.2973 30.733C55.7222 36.2281 51.1968 41.947 46.6217 47.4422C53.559 49.2076 60.5709 51.147 67.5082 52.9124C70.9395 53.7827 74.4206 54.653 77.9514 54.8519C81.4822 55.0508 85.1622 54.5286 88.2455 52.7632C88.2455 52.7632 73.4757 54.4043 68.8509 40.2065C64.226 26.0086 77.1557 18.6735 77.1557 18.6735Z"
      fill="#FFBEE7" />
    <path
      d="M47.7406 58.1092C53.8241 58.1092 58.7557 53.1775 58.7557 47.0941C58.7557 41.0106 53.8241 36.0789 47.7406 36.0789C41.6571 36.0789 36.7255 41.0106 36.7255 47.0941C36.7255 53.1775 41.6571 58.1092 47.7406 58.1092Z"
      fill="#FEAEE1" />
    <path
      d="M47.293 54.8768C42.9914 50.5751 42.9914 43.613 47.293 39.3113C48.4865 38.1178 49.9038 37.2476 51.3957 36.7254C47.5168 35.3578 43.0411 36.2281 39.933 39.3113C35.6314 43.613 35.6314 50.5751 39.933 54.8768C43.0411 57.9849 47.5168 58.8303 51.3957 57.4627C49.9038 56.9405 48.4865 56.0703 47.293 54.8768Z"
      fill="#FE93D3" />
    <path
      d="M91.9503 36.3276C89.986 34.786 89.1406 32.2249 89.8368 29.813C90.7568 26.6303 90.0855 23.7211 87.8725 21.1849C85.386 18.3254 81.2087 16.8584 77.0065 17.306C73.5752 17.6789 70.0195 19.2951 66.7125 21.9805C66.0163 22.5524 65.3201 23.1741 64.6736 23.7957C65.0714 22.9751 65.4444 22.1546 65.7676 21.3092C67.3092 17.3557 67.7319 13.4768 67.0357 10.0951C66.1655 5.94271 63.4801 2.46163 59.999 0.969736C56.8909 -0.348102 53.9319 -0.0994546 51.1719 1.76541C49.0833 3.15784 46.3979 3.15784 44.3092 1.76541C41.5492 -0.0745897 38.5903 -0.348102 35.4822 0.969736C32.0011 2.46163 29.2909 5.96757 28.4455 10.0951C27.7244 13.4768 28.1719 17.3557 29.7136 21.3092C30.0368 22.1546 30.4098 23 30.8076 23.7957C30.1611 23.1741 29.4898 22.5524 28.7687 21.9805C25.4865 19.2951 21.9309 17.6789 18.4747 17.306C14.2725 16.8584 10.1201 18.3503 7.6087 21.1849C5.39573 23.7211 4.72438 26.6303 5.64438 29.813C6.34059 32.2249 5.49519 34.786 3.53086 36.3276C0.920054 38.3665 -0.248595 41.1265 0.0497835 44.4832C0.397892 48.2627 2.88438 51.893 6.56438 54.0065C9.22492 55.5233 12.5071 56.3189 16.1622 56.3189C16.6347 56.3189 17.1319 56.2941 17.6292 56.2692C18.5492 56.2195 19.4444 56.12 20.3395 55.9957C19.5438 56.4184 18.7482 56.866 17.9774 57.3633C14.4217 59.6508 11.786 62.5351 10.3687 65.693C8.62816 69.547 8.77735 73.973 10.7168 77.2303C12.4325 80.1146 14.9936 81.6562 18.3255 81.7805C20.8368 81.88 23.0249 83.4465 23.8703 85.8087C25.0141 88.9168 27.2519 90.8811 30.5341 91.627C31.3049 91.8011 32.0757 91.8757 32.8714 91.8757C35.9298 91.8757 39.1125 90.6324 41.599 88.3697C44.1601 86.0573 46.0995 82.6508 47.1687 78.5481C47.3925 77.653 47.5914 76.7827 47.7406 75.8876C47.8898 76.7827 48.0887 77.6778 48.3125 78.5481C49.4065 82.6508 51.3211 86.0324 53.8822 88.3697C56.3687 90.6324 59.5514 91.8757 62.6098 91.8757C63.4055 91.8757 64.2011 91.8011 64.9471 91.627C68.2292 90.8811 70.4671 88.9168 71.6109 85.8087C72.4811 83.4465 74.6444 81.88 77.1557 81.7805C80.4628 81.6562 83.0238 80.1395 84.7644 77.2303C86.7038 73.973 86.8282 69.5719 85.1125 65.693C83.6952 62.5351 81.0595 59.6508 77.5038 57.3633C76.733 56.866 75.9374 56.4184 75.1417 55.9957C76.0368 56.12 76.932 56.2195 77.852 56.2692C78.3493 56.2941 78.8217 56.3189 79.319 56.3189C82.9741 56.3189 86.2563 55.5233 88.9168 54.0065C92.5968 51.893 95.0833 48.2627 95.4314 44.4832C95.7298 41.1265 94.5611 38.3665 91.9503 36.3276ZM54.5287 53.8822C54.1806 54.2303 53.7828 54.5535 53.3849 54.8519C51.7438 56.0454 49.8044 56.6919 47.7406 56.6919C45.6768 56.6919 43.7374 56.0454 42.0963 54.8519C41.6984 54.5535 41.3255 54.2303 40.9525 53.8822C37.1979 50.1276 37.1979 44.0357 40.9525 40.2811C42.7676 38.466 45.1795 37.4714 47.7406 37.4714C50.3017 37.4714 52.7136 38.466 54.5287 40.2811C58.2833 44.0357 58.2833 50.1276 54.5287 53.8822ZM31.1806 10.6173C31.8519 7.36 33.9406 4.62487 36.6011 3.48109C38.7892 2.53622 40.8282 2.71027 42.7676 4.02811C45.8011 6.06703 49.7298 6.06703 52.7384 4.02811C54.6779 2.71027 56.6919 2.53622 58.9049 3.48109C61.5655 4.62487 63.6292 7.36 64.3255 10.6173C64.9222 13.4768 64.5244 16.8087 63.2065 20.2649C61.9633 23.4476 60.0736 26.4562 58.2584 29.3654C56.7914 31.6778 55.2995 34.04 53.8325 36.2778C52.7136 35.6562 51.4952 35.1838 50.2271 34.9351C51.9428 32.026 54.6779 26.1081 54.6779 17.7535C54.6779 16.9827 54.0563 16.3611 53.2855 16.3611C52.5146 16.3611 51.893 16.9827 51.893 17.7535C51.893 25.4865 49.3071 31.0065 47.7903 33.5676C46.2736 30.9816 43.6876 25.4616 43.6876 17.7535C43.6876 16.9827 43.066 16.3611 42.2952 16.3611C41.5244 16.3611 40.9028 16.9827 40.9028 17.7535C40.9028 26.1081 43.6379 32.026 45.3536 34.9351C44.0855 35.1838 42.8671 35.6314 41.7482 36.2778C40.306 34.04 38.8141 31.7027 37.3222 29.3654C35.5071 26.4562 33.6174 23.4724 32.3741 20.2649C30.9817 16.8087 30.5838 13.4768 31.1806 10.6173ZM17.4552 53.4595C13.7752 53.6584 10.4682 53.0119 7.93195 51.5449C5.04762 49.8789 3.0833 47.0692 2.83465 44.2097C2.61087 41.8227 3.40654 39.9578 5.24654 38.5157C8.13087 36.253 9.32438 32.5232 8.32978 29.0173C7.6833 26.7546 8.13087 24.7903 9.72222 23C11.6119 20.8368 14.8692 19.693 18.1763 20.066C21.0855 20.3892 24.119 21.7816 27.0033 24.1189C29.6638 26.2822 31.9265 29.0173 34.1146 31.653C35.9049 33.8162 37.7201 36.0292 39.3114 37.9935C39.1871 38.093 39.0876 38.2173 38.9633 38.3168C38.1428 39.1373 37.4714 40.0324 36.9244 41.0022C34.6865 38.466 29.8876 34.04 21.9557 31.4541C21.2098 31.2054 20.439 31.6281 20.1903 32.3492C19.9417 33.0951 20.3644 33.866 21.0855 34.1146C28.4455 36.5016 32.8714 40.6541 34.8606 42.9168C31.9265 43.5633 25.8844 44.3092 18.5492 41.9222C17.8033 41.6735 17.0325 42.0962 16.7838 42.8173C16.5352 43.5632 16.9579 44.3341 17.679 44.5827C21.8563 45.9254 25.6109 46.373 28.719 46.373C31.5536 46.373 33.8411 46.0249 35.4076 45.6519C35.2584 46.92 35.3082 48.2378 35.5568 49.506C33.0703 50.1524 30.3103 50.8984 27.6249 51.5697C24.3179 52.4151 20.8865 53.2854 17.4552 53.4595ZM44.4584 77.8519C43.5136 81.4324 41.8725 84.3416 39.7092 86.306C37.2476 88.5438 33.9655 89.5384 31.1557 88.8919C28.8184 88.3697 27.3017 87.027 26.4811 84.8389C25.2379 81.4076 22.0552 79.0951 18.4001 78.9708C16.0628 78.8962 14.3222 77.8519 13.1038 75.7881C11.6119 73.3016 11.5622 69.8703 12.9298 66.8368C14.1233 64.1762 16.4109 61.7146 19.519 59.7006C22.4033 57.8357 25.6855 56.5178 28.8682 55.2497C31.4292 54.2303 34.0152 53.2108 36.5017 52.266C37.0238 53.4097 37.7449 54.5038 38.6401 55.4735C35.5319 56.8162 29.8379 59.9989 24.9395 66.7622C24.4919 67.3838 24.6163 68.2541 25.2379 68.7265C25.8595 69.1741 26.7298 69.0497 27.2022 68.4281C31.7525 62.1622 37.0736 59.2281 39.8336 58.0346C39.5601 60.9935 38.4163 66.9611 33.8411 73.2519C33.3936 73.8735 33.5179 74.7438 34.1395 75.2162C34.3882 75.3903 34.6865 75.4897 34.9601 75.4897C35.3828 75.4897 35.8303 75.2908 36.1038 74.9178C41.0022 68.1546 42.2952 61.7643 42.6184 58.4076C43.7871 58.9297 45.0303 59.3027 46.3233 59.4519C46.1741 62.0876 46.0249 64.8724 45.826 67.6324C45.5774 71.0141 45.3287 74.5449 44.4584 77.8519ZM82.5763 66.8616C83.9438 69.8951 83.8692 73.3265 82.3773 75.813C81.159 77.8768 79.4184 78.8962 77.0811 78.9957C73.426 79.12 70.2682 81.4324 69.0001 84.8638C68.2044 87.0768 66.6628 88.3946 64.3255 88.9168C61.5157 89.5633 58.2336 88.5687 55.7719 86.3308C53.6087 84.3665 51.9676 81.4573 51.0228 77.8768C50.1525 74.5697 49.9038 71.0389 49.6801 67.6076C49.506 64.8476 49.3319 62.0876 49.1828 59.427C50.4757 59.2778 51.719 58.9297 52.8876 58.3827C53.2109 61.7643 54.479 68.1546 59.4022 74.893C59.6757 75.266 60.0984 75.4649 60.546 75.4649C60.8195 75.4649 61.1179 75.3903 61.3665 75.1914C61.9882 74.7438 62.1374 73.8735 61.6649 73.227C57.1147 66.9611 55.9709 60.9935 55.6974 58.0097C58.4325 59.2032 63.7536 62.1124 68.3287 68.4033C68.7763 69.0249 69.6465 69.1741 70.293 68.7016C70.9146 68.2541 71.0638 67.3838 70.5914 66.7373C65.693 59.9741 59.999 56.7914 56.8909 55.4487C57.786 54.4789 58.5071 53.3849 59.0292 52.2411C61.5157 53.2108 64.1017 54.2054 66.6628 55.2249C69.8455 56.493 73.1276 57.8108 76.0119 59.6757C79.0952 61.7146 81.3828 64.2011 82.5763 66.8616ZM92.6465 44.2097C92.3979 47.0941 90.4336 49.9038 87.5492 51.5449C85.013 52.987 81.7309 53.6584 78.026 53.4595C74.5947 53.2605 71.1633 52.3903 67.8314 51.5697C65.146 50.8984 62.4606 50.1773 59.8995 49.506C60.1482 48.2378 60.1979 46.9449 60.0487 45.6519C61.6152 46 63.9028 46.373 66.7374 46.373C69.8455 46.373 73.6249 45.9503 77.7774 44.5827C78.5233 44.3341 78.9211 43.5632 78.6725 42.8173C78.4238 42.0714 77.653 41.6735 76.9071 41.9222C69.5471 44.3092 63.5049 43.5633 60.5709 42.9168C62.5352 40.6789 66.9611 36.5265 74.346 34.1146C75.0919 33.866 75.4898 33.0951 75.2411 32.3492C74.9925 31.6033 74.2217 31.2054 73.4757 31.4541C65.519 34.04 60.7449 38.466 58.5071 41.0022C57.9601 40.0324 57.2887 39.1373 56.4682 38.3168C56.3438 38.1924 56.2444 38.093 56.1201 37.9935C57.8109 35.9297 59.5514 33.7665 61.3168 31.653C63.5049 29.0173 65.7925 26.307 68.4282 24.1189C71.2876 21.7816 74.346 20.3892 77.2552 20.066C80.5622 19.7178 83.7947 20.8368 85.7093 23C87.2757 24.7903 87.7482 26.7795 87.1017 29.0173C86.1071 32.5232 87.3006 36.253 90.1849 38.5157C92.0747 39.9827 92.8703 41.8227 92.6465 44.2097Z"
      fill="black" />
  </g>
  <defs>
    <clipPath id="clip0_202_74">
      <rect width="95.4811" height="92" fill="white" />
    </clipPath>
  </defs>
</svg>