<svg width="33" height="32" viewBox="0 0 33 32" fill="none" xmlns="http://www.w3.org/2000/svg">
  <g clip-path="url(#clip0_183_81)">
    <path
      d="M16.3333 0C7.51094 0 0.333344 7.1776 0.333344 16C0.333344 24.8224 7.51094 32 16.3333 32C25.1557 32 32.3333 24.8224 32.3333 16C32.3333 7.1776 25.1557 0 16.3333 0ZM29.0229 14.4H24.6005C24.4015 10.8983 23.4219 7.48537 21.7333 4.4112C23.6923 5.32611 25.388 6.72177 26.6626 8.46826C27.9371 10.2147 28.7491 12.2553 29.0229 14.4ZM17.1813 3.2432C18.8373 5.4256 21.0645 9.2912 21.3845 14.4H11.5813C11.8037 10.2464 13.1717 6.3552 15.5029 3.2416C15.7781 3.2256 16.0533 3.2 16.3333 3.2C16.6197 3.2 16.8997 3.2256 17.1813 3.2432ZM11.0341 4.3632C9.45974 7.3888 8.55094 10.8192 8.38134 14.4H3.64374C3.91973 12.2364 4.74335 10.179 6.03661 8.42266C7.32988 6.66629 9.05 5.26904 11.0341 4.3632ZM3.64374 17.6H8.40214C8.61974 21.4064 9.46614 24.7648 10.8917 27.568C8.94325 26.6495 7.25771 25.2547 5.99088 23.5124C4.72405 21.7702 3.9168 19.7367 3.64374 17.6ZM15.4533 28.7568C13.2117 26.04 11.8885 22.2336 11.5989 17.6H21.3797C21.0469 22.0368 19.5925 25.9136 17.2149 28.7552C16.9237 28.7744 16.6325 28.8 16.3333 28.8C16.0357 28.8 15.7461 28.7744 15.4533 28.7568ZM21.8709 27.5216C23.3989 24.6512 24.3317 21.28 24.5765 17.6H29.0213C28.752 19.7191 27.9567 21.737 26.7077 23.47C25.4588 25.203 23.796 26.5958 21.8709 27.5216Z"
      fill="#533710" />
  </g>
  <defs>
    <clipPath id="clip0_183_81">
      <rect width="32" height="32" fill="white" transform="translate(0.333344)" />
    </clipPath>
  </defs>
</svg>
  