<svg width="76" height="134" viewBox="0 0 76 134" fill="none" xmlns="http://www.w3.org/2000/svg">
  <g clip-path="url(#clip0_202_68)">
    <path
      d="M75.8075 38.9641C75.8075 33.6206 73.3748 28.7553 69.1956 25.6573C70.0252 20.4385 68.4055 15.2197 64.7441 11.4356C61.1284 7.71381 55.9304 6.00887 50.9195 6.79897C47.9047 2.5782 43.0602 0 37.9453 0C32.8305 0 27.986 2.5782 24.9712 6.79897C19.9603 6.00887 14.7623 7.71381 11.1466 11.4356C7.48513 15.2197 5.86543 20.4385 6.69503 25.6573C2.51585 28.7553 0.0831909 33.6206 0.0831909 38.9641C0.0831909 44.2869 2.51585 49.173 6.69503 52.271C5.86543 57.469 7.48513 62.7085 11.1466 66.4927C14.7623 70.2144 19.9603 71.9194 24.9712 71.1293C27.986 75.4124 32.7473 77.9282 37.9453 77.9282C37.9037 86.8272 37.5503 94.5202 36.9681 101.07C36.781 102.234 36.6978 103.19 36.6562 103.814C35.7435 101.985 34.5354 100.196 32.8513 98.6994C26.5306 93.0024 16.6752 93.9796 16.2614 94.0212C15.2218 94.146 14.4525 94.9984 14.4525 96.038C14.4525 96.4539 14.5149 106.351 20.8564 112.048C25.2227 115.998 31.2524 116.726 34.7247 116.788C33.1216 124.149 31.1277 128.266 29.1108 129.243C28.1128 129.721 27.697 130.927 28.1752 131.925C28.5266 132.653 29.2335 133.068 30.0028 133.068C30.296 133.068 30.585 133.006 30.8553 132.861C36.1572 130.324 38.9849 119.325 40.4612 106.704C40.5048 106.725 40.5235 106.725 40.5651 106.725C43.8939 106.725 50.4205 106.122 55.0363 101.964C61.3779 96.2667 61.4402 86.349 61.4402 85.9331C61.4402 84.9143 60.6709 84.0411 59.6313 83.9371C59.2176 83.8955 49.3622 82.8975 43.0414 88.5945C42.5632 89.0311 42.1266 89.4678 41.7315 89.946C41.9187 85.4757 41.981 81.2134 42.0018 77.3876C45.5573 76.4312 48.7156 74.2689 50.9216 71.1293C55.9532 71.9194 61.1304 70.2144 64.7462 66.4927C68.4076 62.7085 70.0273 57.469 69.1977 52.271C73.3748 49.173 75.8075 44.2869 75.8075 38.9641ZM23.5365 109.054C20.0227 105.893 18.9623 100.758 18.6296 97.9717C21.4157 97.9925 26.6345 98.5123 30.1691 101.693C33.683 104.854 34.7434 109.989 35.076 112.776C32.2899 112.755 27.0711 112.235 23.5365 109.054ZM45.7215 91.5885C49.2333 88.449 54.4749 87.9084 57.2611 87.8876C56.9492 90.6529 55.868 95.7885 52.3542 98.9697C48.8611 102.088 43.7047 102.629 40.8978 102.671C40.9414 102.213 40.981 101.756 41.0246 101.278C41.5215 98.4083 42.7275 94.2915 45.7215 91.5885ZM65.9105 49.6304C65.162 50.0878 64.8085 50.9819 65.0144 51.8135C66.054 56.1383 64.8709 60.567 61.854 63.6857C58.8392 66.763 54.5976 67.9897 50.46 66.9085C49.6096 66.7006 48.674 67.0748 48.2145 67.8441C46.0313 71.6283 42.1869 73.8946 37.9453 73.8946C33.7038 73.8946 29.8573 71.6283 27.6741 67.8441C27.2999 67.2204 26.6345 66.8461 25.9276 66.8461C25.7612 66.8461 25.5949 66.8669 25.4307 66.9085C21.2931 67.9897 17.0515 66.763 14.0367 63.6857C11.0218 60.567 9.8367 56.1383 10.8763 51.8135C11.0842 50.9819 10.7307 50.0878 9.98016 49.6304C6.29998 47.3641 4.11891 43.372 4.11891 38.9641C4.11891 34.5562 6.30206 30.5642 9.98016 28.2771C10.7287 27.8196 11.0821 26.9464 10.8763 26.0939C9.8367 21.79 11.0198 17.3613 14.0367 14.2425C17.0515 11.1445 21.2931 9.93855 25.4307 10.9989C26.3018 11.2277 27.2167 10.8534 27.6741 10.0633C29.8593 6.27917 33.7038 4.03364 37.9453 4.03364C42.1869 4.03364 46.0334 6.27917 48.2145 10.0633C48.674 10.8534 49.5867 11.2277 50.46 10.9989C54.5976 9.93855 58.8392 11.1445 61.854 14.2425C64.8688 17.3613 66.054 21.79 65.0144 26.0939C64.8064 26.9464 65.1599 27.8196 65.9105 28.2771C69.5907 30.5642 71.7718 34.5562 71.7718 38.9641C71.7738 43.372 69.5907 47.3641 65.9105 49.6304Z"
      fill="#2B2F64" />
    <path
      d="M57.261 87.8876C56.9492 90.6529 55.868 95.7885 52.3541 98.9697C48.8611 102.088 43.7047 102.629 40.8978 102.671C40.9414 102.213 40.9809 101.756 41.0246 101.278C41.5215 98.4083 42.7275 94.2915 45.7236 91.5885C49.2353 88.449 54.4749 87.9084 57.261 87.8876ZM35.076 112.776C32.2899 112.755 27.069 112.235 23.5365 109.054C20.0226 105.893 18.9622 100.758 18.6296 97.9717C21.4157 97.9925 26.6345 98.5123 30.1691 101.693C33.683 104.854 34.7433 109.989 35.076 112.776Z"
      fill="#3CA580" />
    <path
      d="M65.9105 28.2771C65.162 27.8196 64.8085 26.9464 65.0143 26.0939C66.0539 21.79 64.8709 17.3613 61.854 14.2425C58.8391 11.1445 54.5976 9.93855 50.46 10.9989C49.5867 11.2277 48.6739 10.8534 48.2144 10.0633C46.0334 6.27917 42.1869 4.03364 37.9453 4.03364C33.7037 4.03364 29.8572 6.27917 27.6741 10.0633C27.2166 10.8534 26.3018 11.2277 25.4285 10.9989C21.2909 9.93855 17.0494 11.1445 14.0346 14.2425C11.0197 17.3613 9.83458 21.79 10.8742 26.0939C11.0821 26.9464 10.7286 27.8196 9.97804 28.2771C6.29787 30.5642 4.11679 34.5562 4.11679 38.9641C4.11679 43.372 6.29995 47.3641 9.97804 49.6304C10.7266 50.0878 11.08 50.9819 10.8742 51.8135C9.83458 56.1383 11.0176 60.567 14.0346 63.6857C17.0494 66.763 21.2909 67.9897 25.4285 66.9085C25.5928 66.8669 25.7591 66.8461 25.9255 66.8461C26.6324 66.8461 27.2977 67.2204 27.672 67.8441C29.8572 71.6283 33.7017 73.8946 37.9432 73.8946C42.1848 73.8946 46.0313 71.6283 48.2124 67.8441C48.6719 67.0748 49.6075 66.7006 50.4579 66.9085C54.5955 67.9897 58.837 66.763 61.8519 63.6857C64.8667 60.567 66.0519 56.1383 65.0123 51.8135C64.8043 50.9819 65.1578 50.0878 65.9084 49.6304C69.5886 47.3641 71.7696 43.372 71.7696 38.9641C71.7738 34.5562 69.5906 30.5642 65.9105 28.2771ZM37.9453 57.261C27.8612 57.261 19.6484 49.0482 19.6484 38.9641C19.6484 28.88 27.8612 20.6672 37.9453 20.6672C48.0294 20.6672 56.2422 28.88 56.2422 38.9641C56.2422 49.0482 48.0294 57.261 37.9453 57.261Z"
      fill="#FEDC7D" />
    <path
      d="M37.9453 20.6672C27.8612 20.6672 19.6484 28.88 19.6484 38.9641C19.6484 49.0482 27.8612 57.261 37.9453 57.261C48.0294 57.261 56.2422 49.0482 56.2422 38.9641C56.2422 28.88 48.0294 20.6672 37.9453 20.6672ZM37.9453 53.2274C30.0859 53.2274 23.682 46.8235 23.682 38.9641C23.682 31.1048 30.0859 24.7008 37.9453 24.7008C45.8046 24.7008 52.2086 31.1048 52.2086 38.9641C52.2086 46.8235 45.8046 53.2274 37.9453 53.2274Z"
      fill="#2B2F64" />
    <path
      d="M52.2086 38.9641C52.2086 46.8235 45.8047 53.2274 37.9453 53.2274C30.086 53.2274 23.682 46.8235 23.682 38.9641C23.682 31.1048 30.086 24.7008 37.9453 24.7008C45.8047 24.7008 52.2086 31.1048 52.2086 38.9641Z"
      fill="#E3B448" />
  </g>
  <defs>
    <clipPath id="clip0_202_68">
      <rect width="75.8906" height="133.068" fill="white" />
    </clipPath>
  </defs>
</svg>
  